<svg width="400" height="120" viewBox="0 0 400 120" fill="none" xmlns="http://www.w3.org/2000/svg">
<path d="M66.3259 47.4649L66.9819 47.9679C70.4669 50.6369 73.4049 53.9539 75.6359 57.7359C78.7369 62.9939 80.3719 68.9869 80.3719 75.0909V96.1079C80.3719 100.706 78.4819 105.101 75.1439 108.263C68.8629 114.214 59.0829 114.398 52.5809 108.69L52.3789 108.513C48.6949 105.278 46.5829 100.612 46.5829 95.7089V74.7679C46.5829 74.3099 46.2119 73.9379 45.7539 73.9379H24.0539C19.5309 73.9379 15.1929 72.1419 11.9949 68.9439C5.50895 62.4569 5.31496 52.0019 11.5569 45.2799L11.7379 45.0849C15.0169 41.5539 19.6189 39.5469 24.4379 39.5469H42.9669C51.4119 39.5469 59.6209 42.3299 66.3259 47.4649ZM66.3259 47.4649L63.3319 51.3729" stroke="#3D203F" stroke-width="10"/>
<path d="M74.0732 9.31045L74.2752 9.48745V9.48846C77.9592 12.7225 80.0712 17.3885 80.0712 22.2915V43.2325C80.0712 43.6905 80.4432 44.0625 80.9012 44.0625H102.601C107.124 44.0625 111.461 45.8585 114.659 49.0565C121.146 55.5435 121.339 65.9985 115.098 72.7205L114.916 72.9155C111.637 76.4465 107.036 78.4535 102.216 78.4535H83.6882C75.2432 78.4535 67.0332 75.6705 60.3292 70.5355L59.6732 70.0325C56.1872 67.3635 53.2492 64.0465 51.0192 60.2645C47.9182 55.0065 46.2822 49.0135 46.2822 42.9095V21.8925C46.2822 17.2945 48.1732 12.8995 51.5102 9.73745C57.7912 3.78645 67.5722 3.60145 74.0732 9.31045ZM74.0732 9.31045L70.7742 13.0675" stroke="#DB479D" stroke-width="10"/>
<path d="M175.701 75.4739C170.934 75.4739 166.512 74.7269 162.434 73.2339C158.413 71.6829 154.91 69.4999 151.923 66.6859C148.994 63.8719 146.696 60.5689 145.031 56.7779C143.365 52.9299 142.532 48.7089 142.532 44.1139C142.532 39.5189 143.365 35.3259 145.031 31.5349C146.696 27.6869 148.994 24.3559 151.923 21.5419C154.91 18.7269 158.413 16.5729 162.434 15.0799C166.512 13.5289 170.934 12.7539 175.701 12.7539C181.273 12.7539 186.241 13.7299 190.606 15.6829C195.028 17.6359 198.704 20.4499 201.634 24.1259L190.778 33.9479C188.825 31.6499 186.671 29.8979 184.317 28.6919C182.019 27.4859 179.435 26.8829 176.563 26.8829C174.093 26.8829 171.824 27.2849 169.757 28.0889C167.689 28.8929 165.908 30.0709 164.415 31.6209C162.979 33.1149 161.831 34.9239 160.969 37.0489C160.165 39.1739 159.763 41.5289 159.763 44.1139C159.763 46.6979 160.165 49.0529 160.969 51.1779C161.831 53.3039 162.979 55.1409 164.415 56.6919C165.908 58.1859 167.689 59.3339 169.757 60.1379C171.824 60.9419 174.093 61.3449 176.563 61.3449C179.435 61.3449 182.019 60.7409 184.317 59.5349C186.671 58.3289 188.825 56.5769 190.778 54.2799L201.634 64.1009C198.704 67.7199 195.028 70.5339 190.606 72.5439C186.241 74.4969 181.273 75.4739 175.701 75.4739Z" fill="#3D203F"/>
<path d="M208.464 74.2678V10.3418H224.833V74.2678H208.464Z" fill="#3D203F"/>
<path d="M235.471 74.268V27.572H251.84V74.268H235.471ZM243.656 22.403C240.669 22.403 238.257 21.57 236.419 19.905C234.581 18.239 233.662 16.171 233.662 13.702C233.662 11.232 234.581 9.164 236.419 7.498C238.257 5.833 240.669 5 243.656 5C246.642 5 249.055 5.804 250.893 7.412C252.73 8.963 253.649 10.973 253.649 13.443C253.649 16.028 252.73 18.182 250.893 19.905C249.112 21.57 246.7 22.403 243.656 22.403Z" fill="#3D203F"/>
<path d="M292.89 26.7969C296.509 26.7969 299.783 27.5439 302.712 29.0369C305.641 30.4729 307.939 32.7129 309.604 35.7569C311.327 38.8009 312.189 42.7349 312.189 47.5599V74.2679H295.82V50.2309C295.82 46.8989 295.13 44.4869 293.752 42.9939C292.431 41.4429 290.564 40.6679 288.152 40.6679C286.429 40.6679 284.849 41.0699 283.414 41.8739C281.978 42.6199 280.858 43.7979 280.054 45.4059C279.249 47.0139 278.847 49.1109 278.847 51.6949V74.2679H262.478V27.5719H278.072V40.8399L275.057 36.9629C276.837 33.5739 279.278 31.0469 282.38 29.3809C285.481 27.6579 288.985 26.7969 292.89 26.7969Z" fill="#3D203F"/>
<path d="M322.466 74.268V27.572H338.835V74.268H322.466ZM330.651 22.403C327.664 22.403 325.252 21.57 323.414 19.905C321.576 18.239 320.657 16.171 320.657 13.702C320.657 11.232 321.576 9.164 323.414 7.498C325.252 5.833 327.664 5 330.651 5C333.637 5 336.05 5.804 337.888 7.412C339.726 8.963 340.644 10.973 340.644 13.443C340.644 16.028 339.726 18.182 337.888 19.905C336.107 21.57 333.695 22.403 330.651 22.403Z" fill="#3D203F"/>
<path d="M373.338 75.0429C368.169 75.0429 363.545 74.0089 359.467 71.9409C355.447 69.8739 352.288 67.0309 349.99 63.4119C347.693 59.7359 346.544 55.5429 346.544 50.8339C346.544 46.1239 347.693 41.9599 349.99 38.3409C352.288 34.7229 355.447 31.9089 359.467 29.8979C363.545 27.8309 368.169 26.7969 373.338 26.7969C378.622 26.7969 383.188 27.9169 387.036 30.1569C390.884 32.3969 393.613 35.5559 395.221 39.6339L382.556 46.0949C381.465 43.9129 380.115 42.3329 378.507 41.3569C376.899 40.3229 375.147 39.8059 373.252 39.8059C371.356 39.8059 369.633 40.2369 368.082 41.0979C366.532 41.9599 365.297 43.2239 364.378 44.8889C363.516 46.4969 363.086 48.4789 363.086 50.8339C363.086 53.2459 363.516 55.2849 364.378 56.9509C365.297 58.6159 366.532 59.8799 368.082 60.7409C369.633 61.6029 371.356 62.0339 373.252 62.0339C375.147 62.0339 376.899 61.5459 378.507 60.5689C380.115 59.5349 381.465 57.9269 382.556 55.7449L395.221 62.2059C393.613 66.2839 390.884 69.4429 387.036 71.6829C383.188 73.9229 378.622 75.0429 373.338 75.0429Z" fill="#3D203F"/>
<path d="M145.332 116.473V78.2773H149.806L166.939 107.142H164.539L181.453 78.2773H185.928L185.982 116.473H180.744L180.69 86.5163H181.945L166.885 111.835H164.375L149.206 86.5163H150.57V116.473H145.332Z" fill="#666666"/>
<path d="M214.633 116.473V110.361L214.36 109.216V98.7943C214.36 96.5753 213.705 94.8654 212.395 93.6654C211.122 92.4284 209.194 91.8104 206.612 91.8104C204.902 91.8104 203.229 92.1013 201.592 92.6833C199.955 93.2283 198.573 93.9742 197.445 94.9202L195.262 90.9914C196.754 89.7914 198.536 88.8814 200.61 88.2634C202.719 87.6084 204.92 87.2812 207.212 87.2812C211.177 87.2812 214.232 88.2454 216.379 90.1734C218.525 92.1014 219.598 95.0474 219.598 99.0124V116.473H214.633ZM205.138 116.8C202.992 116.8 201.101 116.436 199.464 115.709C197.863 114.981 196.627 113.981 195.753 112.708C194.88 111.398 194.444 109.925 194.444 108.288C194.444 106.724 194.808 105.305 195.535 104.032C196.299 102.759 197.518 101.74 199.191 100.976C200.901 100.213 203.192 99.8314 206.066 99.8314H215.233V103.596H206.284C203.665 103.596 201.901 104.032 200.992 104.905C200.082 105.778 199.628 106.833 199.628 108.07C199.628 109.488 200.191 110.634 201.319 111.507C202.447 112.344 204.011 112.762 206.012 112.762C207.976 112.762 209.685 112.326 211.141 111.453C212.632 110.58 213.705 109.307 214.36 107.633L215.397 111.234C214.705 112.944 213.487 114.308 211.741 115.327C209.995 116.309 207.794 116.8 205.138 116.8Z" fill="#666666"/>
<path d="M237.585 116.8C235.184 116.8 232.893 116.473 230.71 115.818C228.564 115.163 226.873 114.363 225.636 113.417L227.818 109.27C229.055 110.107 230.583 110.816 232.402 111.398C234.221 111.98 236.076 112.271 237.967 112.271C240.404 112.271 242.15 111.926 243.205 111.234C244.297 110.543 244.842 109.579 244.842 108.343C244.842 107.433 244.515 106.724 243.86 106.215C243.205 105.705 242.332 105.323 241.241 105.069C240.186 104.814 239.004 104.596 237.694 104.414C236.385 104.196 235.075 103.941 233.766 103.65C232.456 103.323 231.256 102.886 230.165 102.341C229.073 101.759 228.2 100.976 227.546 99.9944C226.891 98.9764 226.563 97.6304 226.563 95.9574C226.563 94.2114 227.054 92.6834 228.037 91.3734C229.019 90.0644 230.401 89.0634 232.183 88.3724C234.002 87.6454 236.148 87.2812 238.622 87.2812C240.514 87.2812 242.423 87.5172 244.351 87.9902C246.316 88.4272 247.916 89.0634 249.153 89.9004L246.916 94.0474C245.606 93.1744 244.242 92.5744 242.823 92.2464C241.405 91.9194 239.986 91.7554 238.567 91.7554C236.276 91.7554 234.566 92.1374 233.438 92.9014C232.311 93.6284 231.747 94.5743 231.747 95.7383C231.747 96.7203 232.074 97.4843 232.729 98.0303C233.42 98.5393 234.293 98.9394 235.348 99.2304C236.439 99.5214 237.64 99.7764 238.949 99.9944C240.259 100.176 241.568 100.431 242.878 100.758C244.188 101.049 245.37 101.468 246.425 102.013C247.516 102.559 248.389 103.323 249.044 104.305C249.735 105.287 250.08 106.597 250.08 108.233C250.08 109.979 249.571 111.489 248.553 112.762C247.534 114.035 246.097 115.036 244.242 115.763C242.387 116.454 240.168 116.8 237.585 116.8Z" fill="#666666"/>
<path d="M266.558 116.801C263.647 116.801 261.392 116.019 259.792 114.455C258.191 112.891 257.391 110.653 257.391 107.743V81.2246H262.629V107.525C262.629 109.089 263.011 110.29 263.775 111.126C264.575 111.963 265.703 112.381 267.158 112.381C268.795 112.381 270.159 111.927 271.25 111.017L272.887 114.782C272.087 115.473 271.123 115.983 269.995 116.31C268.904 116.637 267.758 116.801 266.558 116.801ZM252.48 91.8646V87.5546H270.923V91.8646H252.48Z" fill="#666666"/>
<path d="M291.138 116.8C288.046 116.8 285.318 116.163 282.953 114.89C280.625 113.617 278.806 111.871 277.497 109.652C276.224 107.433 275.587 104.887 275.587 102.013C275.587 99.1394 276.205 96.5934 277.442 94.3744C278.715 92.1554 280.443 90.4274 282.626 89.1914C284.845 87.9174 287.336 87.2812 290.101 87.2812C292.902 87.2812 295.376 87.8994 297.522 89.1364C299.668 90.3734 301.341 92.1194 302.542 94.3744C303.778 96.5934 304.397 99.1944 304.397 102.177C304.397 102.395 304.379 102.65 304.342 102.941C304.342 103.232 304.324 103.505 304.288 103.759H279.679V99.9944H301.559L299.431 101.304C299.468 99.4494 299.086 97.7944 298.286 96.3394C297.485 94.8834 296.376 93.7564 294.957 92.9564C293.575 92.1194 291.956 91.7014 290.101 91.7014C288.282 91.7014 286.663 92.1194 285.245 92.9564C283.826 93.7564 282.717 94.9024 281.916 96.3934C281.116 97.8484 280.716 99.5214 280.716 101.413V102.286C280.716 104.214 281.153 105.942 282.026 107.47C282.935 108.961 284.19 110.125 285.79 110.962C287.391 111.798 289.228 112.217 291.301 112.217C293.011 112.217 294.557 111.926 295.939 111.344C297.358 110.762 298.595 109.889 299.65 108.725L302.542 112.107C301.232 113.635 299.595 114.799 297.631 115.6C295.703 116.4 293.539 116.8 291.138 116.8Z" fill="#666666"/>
<path d="M311.67 116.473V87.5544H316.69V95.4114L316.199 93.4475C317 91.4465 318.345 89.9183 320.237 88.8633C322.129 87.8083 324.457 87.2812 327.221 87.2812V92.3554C327.003 92.3194 326.785 92.3014 326.566 92.3014C326.385 92.3014 326.203 92.3014 326.021 92.3014C323.22 92.3014 321.001 93.1374 319.364 94.8114C317.727 96.4844 316.909 98.9034 316.909 102.068V116.473H311.67Z" fill="#666666"/>
</svg>
